<svg width="21" height="20" viewBox="0 0 21 20" fill="none" xmlns="http://www.w3.org/2000/svg">
<g clip-path="url(#clip0_42_35)">
<path fill-rule="evenodd" clip-rule="evenodd" d="M0.500033 10.0187C0.493361 12.7479 1.49673 15.129 3.49703 17.1278C4.9955 18.6246 6.81599 19.5236 8.90564 19.8723C9.13602 19.911 9.36852 19.9374 9.60102 19.9639C9.70386 19.9756 9.8067 19.9872 9.90936 20H11.0839C11.2014 19.9842 11.3191 19.9697 11.4367 19.9553C11.6989 19.923 11.961 19.8907 12.2207 19.8445C14.4904 19.4434 16.3995 18.3761 17.9386 16.6715C19.3891 15.0618 20.2118 13.164 20.4511 11.0118C20.4677 10.8716 20.484 10.7311 20.5 10.5902V9.41628C20.4842 9.29812 20.47 9.17991 20.4558 9.06187C20.4242 8.79928 20.3927 8.53754 20.3444 8.27906C19.7831 5.28316 18.1911 2.98965 15.5935 1.40634C14.0256 0.450452 12.3142 -0.0159722 10.4982 0.000417231C10.3582 0.00168122 10.2175 0.00581689 10.0762 0.0128212C7.24811 0.150755 4.87512 1.29042 2.99052 3.40589C1.57181 4.99849 0.741334 6.87282 0.548519 8.99416C0.517009 9.34091 0.500856 9.68246 0.500033 10.0187ZM4.14435 4.43374C5.62459 2.74997 7.76368 1.65581 10.1517 1.55994L10.1529 1.55989C10.2673 1.55532 10.3822 1.55303 10.4976 1.55308C12.0642 1.55374 13.5314 1.98138 14.7892 2.72564C16.8823 3.96419 18.3958 6.0796 18.8235 8.56312L18.8237 8.56399C18.8624 8.78897 18.8922 9.01698 18.9127 9.24763C18.9177 9.30369 18.9221 9.35991 18.926 9.41628C18.9308 9.48561 18.9347 9.55517 18.9378 9.62494C18.9433 9.7481 18.9461 9.87193 18.9462 9.99638C18.9464 10.136 18.9431 10.2748 18.9365 10.4127C18.9337 10.4721 18.9302 10.5312 18.9262 10.5902C18.9207 10.6699 18.9141 10.7494 18.9064 10.8285C18.906 10.8323 18.9057 10.8361 18.9053 10.8399C18.7247 12.6731 17.9559 14.3347 16.7896 15.6341L16.7886 15.6352C15.5489 17.0159 13.8602 17.9874 11.9514 18.3205L11.9494 18.3208C11.7183 18.3611 11.484 18.392 11.2469 18.4132C11.1927 18.418 11.1384 18.4223 11.0839 18.4261C11.0143 18.431 10.9444 18.435 10.8744 18.4382C10.7517 18.4438 10.6284 18.4467 10.5044 18.447C10.37 18.4473 10.2362 18.4445 10.1033 18.4385C10.0385 18.4356 9.97381 18.432 9.90936 18.4276C9.86508 18.4246 9.8209 18.4213 9.77682 18.4176C9.56975 18.4003 9.36479 18.3755 9.1622 18.3434L9.16084 18.3432C7.39625 18.0636 5.812 17.2342 4.58888 16.0352C3.02805 14.505 2.05517 12.3726 2.04651 10.013C2.04542 9.71636 2.05984 9.42316 2.08901 9.13418C2.2696 7.34528 3.01535 5.71798 4.14435 4.43374ZM10.5 4.16667C10.0398 4.16667 9.66667 4.53976 9.66667 5V9.16667H5.5C5.03976 9.16667 4.66667 9.53976 4.66667 10C4.66667 10.4602 5.03976 10.8333 5.5 10.8333H9.66667V15C9.66667 15.4602 10.0398 15.8333 10.5 15.8333C10.9602 15.8333 11.3333 15.4602 11.3333 15V10.8333H15.5C15.9602 10.8333 16.3333 10.4602 16.3333 10C16.3333 9.53976 15.9602 9.16667 15.5 9.16667H11.3333V5C11.3333 4.53976 10.9602 4.16667 10.5 4.16667Z" fill="#F5F7F8"/>
</g>
<defs>
<clipPath id="clip0_42_35">
<rect width="20" height="20" fill="white" transform="translate(0.5)"/>
</clipPath>
</defs>
</svg>
