<svg width="50" height="50" viewBox="0 0 50 50" fill="none" xmlns="http://www.w3.org/2000/svg">
<path d="M35.1291 39.6522C31.4236 39.6522 28.3443 36.7402 28.239 33.0493C28.1616 30.2871 29.7278 27.8977 32.0085 26.7622L27.8978 22.4064C25.2706 22.9917 22.4514 22.237 20.4607 20.2476C17.9667 17.7536 16.7072 9.76502 16.3412 6.3811C16.238 5.44913 17.0292 4.65737 17.9617 4.76051C21.3264 5.12453 29.3253 6.37717 31.8282 8.88002C33.8641 10.9159 34.5639 13.7398 33.991 16.32L43.3595 25.1611C45.7827 23.7274 47.2446 20.6555 46.2124 17.5435C42.9898 7.82521 33.9438 1.2959 23.7038 1.2959C10.8432 1.2959 0.21106 11.7536 0.00321705 24.6093C-0.0997241 30.9788 2.27086 36.9876 6.67665 41.5286C11.0775 46.0648 17.0039 48.6119 23.3636 48.7011C28.1145 48.7668 32.7124 47.4355 36.6634 44.8492C39.0262 43.3036 37.9418 39.6522 35.1291 39.6522ZM8.85596 30.3533C5.60106 30.3533 2.9541 27.7053 2.9541 24.4514C2.9541 21.1965 5.60116 18.5485 8.85596 18.5485C12.1108 18.5485 14.7578 21.1965 14.7578 24.4514C14.7579 27.7053 12.1109 30.3533 8.85596 30.3533ZM19.6333 44.7276C16.3795 44.7276 13.7315 42.0805 13.7315 38.8257C13.7315 35.5709 16.3795 32.9229 19.6333 32.9229C22.8881 32.9229 25.5362 35.5709 25.5362 38.8257C25.5362 42.0806 22.8881 44.7276 19.6333 44.7276Z" fill="#F5F7F8"/>
<path d="M8.8558 21.4902C7.22345 21.4902 5.89502 22.8187 5.89502 24.452C5.89502 26.0844 7.22345 27.4127 8.8558 27.4127C10.4882 27.4127 11.8165 26.0843 11.8165 24.452C11.8166 22.8187 10.4882 21.4902 8.8558 21.4902Z" fill="#F5F7F8"/>
<path d="M19.6335 35.8643C18.0012 35.8643 16.6729 37.1927 16.6729 38.826C16.6729 40.4584 18.0013 41.7868 19.6335 41.7868C21.2669 41.7868 22.5953 40.4584 22.5953 38.826C22.5952 37.1927 21.2668 35.8643 19.6335 35.8643Z" fill="#F5F7F8"/>
<path d="M49.4065 34.9119C48.3177 33.8843 33.2801 19.6937 32.7313 19.1758C32.1921 19.943 31.5156 20.6172 30.7559 21.1493C44.3325 35.5395 28.7756 19.051 46.4919 37.8266C47.2965 38.621 48.5957 38.6179 49.3959 37.8158C50.1948 37.0187 50.2048 35.7223 49.4065 34.9119Z" fill="#F5F7F8"/>
<path d="M19.5039 7.92383C20.0617 11.7572 21.1774 16.8061 22.5412 18.1687C24.5251 20.1527 27.7593 20.1584 29.7489 18.1687C31.7241 16.1935 31.7551 12.9673 29.7489 10.961C28.4459 9.65814 23.4842 8.50618 19.5039 7.92383Z" fill="#F5F7F8"/>
</svg>
